<svg viewBox="0 0 445 244" fill="none" xmlns="http://www.w3.org/2000/svg"><path fill-rule="evenodd" clip-rule="evenodd" d="M121.66 185.55l8.65-11.6-49.63-37.02-14 18.78 54.98 29.84z" fill="#394A63"/><path fill-rule="evenodd" clip-rule="evenodd" d="M114.71 234.5l9.56.95 6.04-61.62-15.48-1.52-.12 62.2z" fill="#394A63"/><path fill-rule="evenodd" clip-rule="evenodd" d="M112.92 240.87l7.85.92.12-1 10.27 2.2 8.93 1 .33-2.85-16.62-6.88-9.97-1.23-.9 7.84z" fill="#332F2D"/><path fill-rule="evenodd" clip-rule="evenodd" d="M55.5 196.67l13.83 4.2 18.02-59.24-22.42-6.8-9.44 61.84z" fill="#394A63"/><path fill-rule="evenodd" clip-rule="evenodd" d="M7.1 206.75l2.34 9.3 60.04-15.22-3.83-15.1L7.1 206.75z" fill="#394A63"/><path fill-rule="evenodd" clip-rule="evenodd" d="M.5 207.2l1.8 7.7.97-.24 1.43 10.42 2.08 8.75 2.8-.66.82-17.97-2.22-9.8-7.69 1.8z" fill="#332F2D"/><path fill-rule="evenodd" clip-rule="evenodd" d="M.5 207.2l1.8 7.7.97-.24 1.43 10.42 2.08 8.75 1.58-.4-6.29-26.6-1.58.37z" fill="#635D5A"/><path fill-rule="evenodd" clip-rule="evenodd" d="M139.78 112.87a3.4 3.4 0 004 2.6l8.24-1.74a3.34 3.34 0 002.58-4 3.36 3.36 0 00-4-2.61l-8.2 1.73c-1.84.38-3 2.18-2.62 4.02" fill="#FFDEC5"/><path fill-rule="evenodd" clip-rule="evenodd" d="M81.56 88.5a5.58 5.58 0 019.26-6s.66.87.83 1.17c3.9 6.03 23.43 32.84 55.01 24.13.96 3.17 1.08 3.53 1.4 6.7-45.48 15-66.4-25.77-66.4-25.77v-.01c0-.07-.08-.14-.1-.23" fill="#506A91"/><path fill-rule="evenodd" clip-rule="evenodd" d="M121.2 139.38h52.01a4.8 4.8 0 004.8-4.8V82.56a4.8 4.8 0 00-4.8-4.8H121.2a4.8 4.8 0 00-4.8 4.8v52.02a4.8 4.8 0 004.8 4.8z" fill="#F71117"/><path fill-rule="evenodd" clip-rule="evenodd" d="M123.53 132.24h47.31v-47.3h-47.3v47.3z" fill="#F71117"/><path fill-rule="evenodd" clip-rule="evenodd" d="M128.81 126.95h36.75V90.2h-36.75v36.75z" fill="#F71117"/><path fill-rule="evenodd" clip-rule="evenodd" d="M159.15 92.67a6.9 6.9 0 016.83 7.92l-.03.23-3.02 16.6a6.9 6.9 0 01-6.55 5.66h-3.1l-3.95 4.2-.03.04-.04.03c-.66.62-1.66.63-2.32.05l-.12-.12-3.95-4.2h-2.85a6.9 6.9 0 01-6.75-5.42l-.05-.25-3.02-16.6a6.9 6.9 0 016.56-8.13h22.4v-.01zm-17.7 13.83h-1.67c.25 4.62 3.86 8.3 8.28 8.3s8.03-3.68 8.28-8.3h-1.66c-.25 3.65-3.12 6.53-6.62 6.53s-6.37-2.88-6.62-6.53h.01z" fill="#fff"/><path fill-rule="evenodd" clip-rule="evenodd" d="M138 120.43a3.2 3.2 0 003.41 2.94l7.9-.64a3.14 3.14 0 002.92-3.42 3.16 3.16 0 00-3.4-2.93l-7.92.6a3.2 3.2 0 00-2.92 3.45zM85.5 72.36l8.95 2 2.08-9.2-8.97-2.02-2.07 9.22z" fill="#FFDEC5"/><path fill-rule="evenodd" clip-rule="evenodd" d="M63.51 140.38l23.2 1.58 11.92-67.6-17.67-4.1-17.45 70.12z" fill="#637EA8"/><path fill-rule="evenodd" clip-rule="evenodd" d="M85.01 44.13c-1.62 6.49-1.46 12.88 3.25 15.3l-1.57 7.6L95.66 69c6.5 1.6 8.85-2.72 10.44-9.21l3.28.22-1.12-9.02.76-3.06a12.12 12.12 0 00-23.53-5.78l-.48 1.98z" fill="#FFDEC5"/><path fill-rule="evenodd" clip-rule="evenodd" d="M86.24 53.42c4.38 1.28 3.55-6.95 7.98-5.44 3.9 1.32.42 4.67 2.52 5.44 3.32 1.22.8-11.6 7.83-10.2 6.84 1.4-.55-2.17-.13-6.43-4.12 2.9 2.83-4.56-3.67-6.15A12.12 12.12 0 0086.1 39.5s-5.52 12.25.14 13.92" fill="#753A13"/><path fill-rule="evenodd" clip-rule="evenodd" d="M81.3 88.53a5.6 5.6 0 0110.01-4.67s.54.94.64 1.26c3.07 6.52 18.74 35.75 51.2 31.43.52 3.26.6 3.66.5 6.83-47.1 8.67-62.29-34.6-62.29-34.6l.03-.01c-.04-.1-.08-.16-.09-.24" fill="#728EB7"/><path fill-rule="evenodd" clip-rule="evenodd" d="M102.42 51.9c-.2.6.17 1.25.77 1.45.62.2 1.28-.15 1.47-.76.2-.62-.16-1.28-.78-1.46-.62-.2-1.27.14-1.46.76zm-.2-2.82l4.2 1.3.23-.73-4.2-1.31-.24.74z" fill="#3F3F3F"/><path fill-rule="evenodd" clip-rule="evenodd" d="M140.3 242.38l-.2 1.62-8.95-1.02-10.26-2.2-.12 1-7.85-.9.17-1.62 27.2 3.12z" fill="#635D5A"/><path fill-rule="evenodd" clip-rule="evenodd" d="M91.05 51.06c-.44 1.53.17 3.07 1.4 3.45 1.23.37 2.6-.56 3.08-2.08.47-1.54-.16-3.08-1.4-3.46-1.23-.37-2.6.56-3.08 2.1" fill="#FFEBDE"/><path fill-rule="evenodd" clip-rule="evenodd" d="M91.91 51.32c-.28.95.1 1.9.85 2.12.77.23 1.6-.36 1.9-1.3.3-.92-.08-1.88-.86-2.1-.75-.23-1.6.34-1.9 1.28" fill="#F2D0B8"/><path fill-rule="evenodd" clip-rule="evenodd" d="M100.96 30.65A14.39 14.39 0 0083.7 41.42l28.04 6.48a14.38 14.38 0 00-10.77-17.25" fill="#4A6182"/><path fill-rule="evenodd" clip-rule="evenodd" d="M119.82 49.59l-9.97-2.1.31-1.47 9.96 2.1-.3 1.47z" fill="#4A6182"/><path fill-rule="evenodd" clip-rule="evenodd" d="M307.21.67l-37.8 2.75v10.25l7.96-.3 1.47 32.57 22.54 22.42-.28-58.03 6.11-.62V.67z" fill="#8B4700"/><path fill-rule="evenodd" clip-rule="evenodd" d="M307.21.67l-34.09 2.48 3.33 4.98L307.2 6.6V.67z" fill="#B75E00"/><path fill-rule="evenodd" clip-rule="evenodd" d="M416.95 181.85l1.18 21.13 3.36-4.4c.69-.9 2.1-.14 1.73.93l-4.43 12.58.73 18.42h-8.75v-48.66h6.18z" fill="#7E6467"/><path fill-rule="evenodd" clip-rule="evenodd" d="M389.62 127.16l1.74-34 38.01-24.8 15.06 73.99-19.53 49.42-26.58-7.3-8.7-57.31z" fill="#B5D55A"/><path fill-rule="evenodd" clip-rule="evenodd" d="M391.36 93.15l12.02-7.84 24.83 65.32 16.22-8.28-19.53 49.42-26.58-7.3-8.7-57.31 1.74-34z" fill="#A4B55C"/><path fill-rule="evenodd" clip-rule="evenodd" d="M248.62 230.5l-3.03-10.3 12.6-36.61L290 196.1l1.45 18.97L288 230.5h-39.37z" fill="#B5D55A"/><path fill-rule="evenodd" clip-rule="evenodd" d="M248.62 230.5l-3.03-10.3 16.76 3.64 17.59-31.7 10.07 3.96 1.45 18.97L288 230.5h-39.37z" fill="#A4B55C"/><path fill-rule="evenodd" clip-rule="evenodd" d="M409.12 18l-140.6 12.21 5.01 200.3h129.09l6.5-212.5z" fill="#F71117"/><path fill-rule="evenodd" clip-rule="evenodd" d="M402.62 230.5l1.82-59.7-41.64 21.36-3.26 15.63-15.12 4.8-56.4 17.92h114.6z" fill="#D3080D"/><path fill-rule="evenodd" clip-rule="evenodd" d="M408.8 28.6l-.47 15.14-139.58-1.23v-3.55L408.79 28.6z" fill="#CE0514"/><path fill-rule="evenodd" clip-rule="evenodd" d="M417.03 13.27v14.71L258.72 40.06v-16.8l158.3-9.99z" fill="#7E6467"/><path fill-rule="evenodd" clip-rule="evenodd" d="M285.41 57.88c.15.68 1.76 34.23 1.76 34.23l28.74-2.43 3.08-31.8h-33.58z" fill="#fff"/><path fill-rule="evenodd" clip-rule="evenodd" d="M289.66 89.27c-.77-16.99-1.15-24.92-1.35-28.68H316l-2.4 26.5-23.94 2.18z" fill="#7595AE"/><path fill-rule="evenodd" clip-rule="evenodd" d="M294.29 60.59a108.18 108.18 0 01-5.7 5.7l.3 6.05c3.53-3.81 7.07-7.63 10.45-11.75h-5.05zM301.56 60.59a705.06 705.06 0 01-12.5 15.67l.1 2.02c4.7-5.71 9.25-11.84 13.97-17.7h-1.56zM315.88 61.86c-8.63 8.84-17.35 17.38-26.32 25.1l.1 2.3 1.33-.11c8.29-7.2 16.36-15.3 24.52-23.2l.37-4.1zM315.19 69.55c-6.51 7.08-13.5 12.73-20.14 19.23l3.54-.32c5.64-4.58 11.03-9.6 16.26-15.14l.34-3.77z" fill="#93ACBF"/><path fill-rule="evenodd" clip-rule="evenodd" d="M300.3 59.01v30.26h2.65l.88-30.26h-3.53z" fill="#fff"/><path fill-rule="evenodd" clip-rule="evenodd" d="M315.71 72.33h-27.3v2.71l27.3.9v-3.6z" fill="#fff"/><path fill-rule="evenodd" clip-rule="evenodd" d="M317.5 89.27l-31.65 2.17.44 4.55 30.67-1.52.55-5.2z" fill="#7E6467"/><path fill-rule="evenodd" clip-rule="evenodd" d="M285.41 113.78c.15.68 1.76 34.23 1.76 34.23l28.74-2.44 3.08-31.8h-33.58z" fill="#fff"/><path fill-rule="evenodd" clip-rule="evenodd" d="M289.66 145.16c-.77-16.98-1.15-24.91-1.35-28.67H316l-2.4 26.5-23.94 2.17z" fill="#7595AE"/><path fill-rule="evenodd" clip-rule="evenodd" d="M294.29 116.48a108.2 108.2 0 01-5.7 5.7l.3 6.05a256.8 256.8 0 0010.45-11.74h-5.05zM301.56 116.48a702.76 702.76 0 01-12.5 15.67l.1 2.02c4.7-5.7 9.25-11.83 13.97-17.68h-1.56zM315.88 117.76c-8.63 8.84-17.35 17.37-26.32 25.1l.1 2.3 1.33-.12c8.29-7.2 16.36-15.29 24.52-23.19l.37-4.1zM315.19 125.45c-6.51 7.08-13.5 12.73-20.14 19.23l3.54-.33c5.64-4.58 11.03-9.59 16.26-15.14l.34-3.76z" fill="#93ACBF"/><path fill-rule="evenodd" clip-rule="evenodd" d="M300.3 114.9v30.26h2.65l.88-30.25h-3.53z" fill="#fff"/><path fill-rule="evenodd" clip-rule="evenodd" d="M315.71 128.23h-27.3v2.7l27.3.9v-3.6z" fill="#fff"/><path fill-rule="evenodd" clip-rule="evenodd" d="M317.5 145.16l-31.65 2.18.44 4.55 30.67-1.52.55-5.2z" fill="#7E6467"/><path fill-rule="evenodd" clip-rule="evenodd" d="M358.65 57.88c.15.68 1.77 34.23 1.77 34.23l28.74-2.43 3.08-31.8h-33.59z" fill="#fff"/><path fill-rule="evenodd" clip-rule="evenodd" d="M362.9 89.27c-.76-16.99-1.14-24.92-1.35-28.68h27.7l-2.4 26.5-23.94 2.18z" fill="#7595AE"/><path fill-rule="evenodd" clip-rule="evenodd" d="M367.54 60.59a108.18 108.18 0 01-5.7 5.7l.3 6.05c3.53-3.81 7.06-7.63 10.44-11.75h-5.04zM374.81 60.59a705.06 705.06 0 01-12.5 15.67l.1 2.02c4.69-5.71 9.24-11.84 13.97-17.7h-1.57zM389.13 61.86c-8.63 8.84-17.36 17.38-26.33 25.1l.1 2.3 1.33-.11c8.3-7.2 16.37-15.3 24.53-23.2l.37-4.1zM388.43 69.55c-6.5 7.08-13.5 12.73-20.14 19.23l3.54-.32a165.6 165.6 0 0016.26-15.14l.34-3.77z" fill="#93ACBF"/><path fill-rule="evenodd" clip-rule="evenodd" d="M373.54 59.01v30.26h2.65l.88-30.26h-3.53z" fill="#fff"/><path fill-rule="evenodd" clip-rule="evenodd" d="M388.96 72.33h-27.3v2.71l27.3.9v-3.6z" fill="#fff"/><path fill-rule="evenodd" clip-rule="evenodd" d="M390.75 89.27l-31.65 2.17.44 4.55 30.66-1.52.55-5.2z" fill="#7E6467"/><path fill-rule="evenodd" clip-rule="evenodd" d="M358.65 113.78c.15.68 1.77 34.23 1.77 34.23l28.74-2.44 3.08-31.8h-33.59z" fill="#fff"/><path fill-rule="evenodd" clip-rule="evenodd" d="M362.9 145.16c-.76-16.98-1.14-24.91-1.35-28.67h27.7l-2.4 26.5-23.94 2.17z" fill="#7595AE"/><path fill-rule="evenodd" clip-rule="evenodd" d="M367.54 116.48a108.2 108.2 0 01-5.7 5.7l.3 6.05a256.8 256.8 0 0010.44-11.74h-5.04zM374.81 116.48a702.76 702.76 0 01-12.5 15.67l.1 2.02c4.69-5.7 9.24-11.83 13.97-17.68h-1.57zM389.13 117.76c-8.63 8.84-17.36 17.37-26.33 25.1l.1 2.3 1.33-.12c8.3-7.2 16.37-15.29 24.53-23.19l.37-4.1zM388.43 125.45c-6.5 7.08-13.5 12.73-20.14 19.23l3.54-.33c5.64-4.58 11.04-9.59 16.26-15.14l.34-3.76z" fill="#93ACBF"/><path fill-rule="evenodd" clip-rule="evenodd" d="M373.54 114.9v30.26h2.65l.88-30.25h-3.53z" fill="#fff"/><path fill-rule="evenodd" clip-rule="evenodd" d="M388.96 128.23h-27.3v2.7l27.3.9v-3.6z" fill="#fff"/><path fill-rule="evenodd" clip-rule="evenodd" d="M390.75 145.16l-31.65 2.18.44 4.55 30.66-1.52.55-5.2z" fill="#7E6467"/><path fill-rule="evenodd" clip-rule="evenodd" d="M358.65 169.68c.15.67 1.77 34.23 1.77 34.23l28.74-2.44 3.08-31.8h-33.59z" fill="#fff"/><path fill-rule="evenodd" clip-rule="evenodd" d="M362.9 201.06c-.76-16.98-1.14-24.91-1.35-28.68h27.7l-2.4 26.51-23.94 2.17z" fill="#7595AE"/><path fill-rule="evenodd" clip-rule="evenodd" d="M367.54 172.38a108.2 108.2 0 01-5.7 5.7l.3 6.05a256.8 256.8 0 0010.44-11.75h-5.04zM374.81 172.38a702.76 702.76 0 01-12.5 15.67l.1 2.02c4.69-5.7 9.24-11.83 13.97-17.69h-1.57zM389.13 173.65c-8.63 8.84-17.36 17.38-26.33 25.1l.1 2.31 1.33-.12c8.3-7.2 16.37-15.3 24.53-23.2l.37-4.09zM388.43 181.34c-6.5 7.08-13.5 12.74-20.14 19.23l3.54-.32c5.64-4.58 11.04-9.6 16.26-15.14l.34-3.77z" fill="#93ACBF"/><path fill-rule="evenodd" clip-rule="evenodd" d="M373.54 170.8v30.26h2.65l.88-30.26h-3.53z" fill="#fff"/><path fill-rule="evenodd" clip-rule="evenodd" d="M388.96 184.13h-27.3v2.7l27.3.9v-3.6z" fill="#fff"/><path fill-rule="evenodd" clip-rule="evenodd" d="M390.75 201.06l-31.65 2.17.44 4.56 30.66-1.53.55-5.2z" fill="#7E6467"/><path fill-rule="evenodd" clip-rule="evenodd" d="M288.02 230.5l-4.32-59.62 37.5-2.05-3.92 61.68h-29.26z" fill="#888D98"/><path fill-rule="evenodd" clip-rule="evenodd" d="M291.17 230.5l-3.85-56.43 30.26-1.65-3.48 58.09h-22.94z" fill="#F3F3F3"/><path fill-rule="evenodd" clip-rule="evenodd" d="M314.1 230.5l-19.56-16.03-2.02-40.68-5.2.28 3.85 56.44h22.94z" fill="#fff"/><path fill-rule="evenodd" clip-rule="evenodd" d="M311.96 196.37h-2.86l-.8 6.19h3.66v-6.2z" fill="#7E6467"/><path fill-rule="evenodd" clip-rule="evenodd" d="M316.96 94.47l-20.86 7.37-9.81-5.85 30.67-1.52z" fill="#DC5F4A"/><path fill-rule="evenodd" clip-rule="evenodd" d="M419.52 230.5h-52.68c-5.06 2.66-10.11 5.29-15.13 7.96h78.38l-10.57-7.95z" fill="#A4B55C"/><path fill-rule="evenodd" clip-rule="evenodd" d="M248.62 230.5l-7.62 7.96 70.96-1.2-1.83 6.74 13.16-6.75-2.1 6.75 15.06-8.83-3.5 6.73 10.5-3.44h8.46c5.02-2.67 10.08-5.3 15.13-7.95H248.62z" fill="#B5D55A"/></svg>