<svg viewBox="0 0 444 240" fill="none" xmlns="http://www.w3.org/2000/svg"><path fill-rule="evenodd" clip-rule="evenodd" d="M263.66 116.06a4.8 4.8 0 004.8 4.8h52.02a4.8 4.8 0 004.8-4.8V64.04a4.8 4.8 0 00-4.8-4.8h-52.02a4.8 4.8 0 00-4.8 4.8v52.02z" fill="#F71117"/><path fill-rule="evenodd" clip-rule="evenodd" d="M270.83 113.7h47.31V66.4h-47.31v47.3z" fill="#F71117"/><path fill-rule="evenodd" clip-rule="evenodd" d="M276.1 108.42h36.74V71.67h-36.75v36.75z" fill="#F71117"/><path fill-rule="evenodd" clip-rule="evenodd" d="M306.07 72.11a7.37 7.37 0 017.3 8.45l-.04.24-3.22 17.7a7.36 7.36 0 01-7 6.06h-3.3l-4.2 4.47-.04.03-.04.05c-.7.66-1.78.67-2.49.03l-.12-.11-4.2-4.47h-3.05a7.37 7.37 0 01-7.2-5.82l-.05-.24-3.22-17.7a7.38 7.38 0 017-8.69h23.87zM287.2 86.86h-1.77c.26 4.93 4.12 8.84 8.83 8.84 4.7 0 8.56-3.9 8.83-8.84h-1.77c-.27 3.9-3.33 6.96-7.06 6.96-3.74 0-6.8-3.07-7.06-6.96z" fill="#fff"/><path fill-rule="evenodd" clip-rule="evenodd" d="M157.98 207.7h-23.06L158.3 96.07h12L157.97 207.7z" fill="#8C8C8C"/><path fill-rule="evenodd" clip-rule="evenodd" d="M156.4 207.7h133.55v-20.27H156.41v20.26z" fill="#8C8C8C"/><path fill-rule="evenodd" clip-rule="evenodd" d="M289.96 191.41h-83.9l9.56-54.38h63.19l11.15 54.38z" fill="#8C8C8C"/><path fill-rule="evenodd" clip-rule="evenodd" d="M211.63 140.69h82.84v-13.8h-82.84v13.8zM321.35 207.83a27.81 27.81 0 01-55.62 0 27.8 27.8 0 0155.62 0" fill="#282828"/><path fill-rule="evenodd" clip-rule="evenodd" d="M307.8 207.83a14.26 14.26 0 11-28.5 0 14.26 14.26 0 0128.5 0" fill="#B7B7B7"/><path fill-rule="evenodd" clip-rule="evenodd" d="M165.6 210.39a27.8 27.8 0 11-55.6-.03 27.8 27.8 0 0155.6.03" fill="#282828"/><path fill-rule="evenodd" clip-rule="evenodd" d="M137.8 224.64a14.26 14.26 0 11-.01-28.52 14.26 14.26 0 01.02 28.52z" fill="#B7B7B7"/><path fill-rule="evenodd" clip-rule="evenodd" d="M251.2 126.9h83.37v-6.62h-83.38v6.62z" fill="#8C8C8C"/><path fill-rule="evenodd" clip-rule="evenodd" d="M140.05 212.37l-5.14-1.63L148 169.38l5.13 1.64-13.07 41.35z" fill="#6D6D6D"/><path fill-rule="evenodd" clip-rule="evenodd" d="M293.55 164.56v11.7a31.43 31.43 0 00-31.43 31.44H250.4a43.14 43.14 0 0143.15-43.14" fill="#BABABA"/><path fill-rule="evenodd" clip-rule="evenodd" d="M145.9 210.13a8.1 8.1 0 11-16.16-.02 8.1 8.1 0 0116.16.02M301.63 207.7a8.09 8.09 0 11-16.18 0 8.09 8.09 0 0116.18 0" fill="#E2E2E2"/><path fill-rule="evenodd" clip-rule="evenodd" d="M156.91 100.08h30.67v-4.55h-30.67v4.55z" fill="#6D6D6D"/><path fill-rule="evenodd" clip-rule="evenodd" d="M175.33 100.08h12.25v-4.55h-12.25v4.55zM150.64 90.05v18.9a9.44 9.44 0 100-18.9" fill="#282828"/><path fill-rule="evenodd" clip-rule="evenodd" d="M149.09 108.94h1.56v-18.9h-1.56v18.9z" fill="#8C8C8C"/><path fill-rule="evenodd" clip-rule="evenodd" d="M173.14 187.13h10.36l12.01-1.16v1.16h9.12v-9.1l-11.58.12-19.9 5.66v3.32z" fill="#332F2D"/><path fill-rule="evenodd" clip-rule="evenodd" d="M187.28 96.79a3.16 3.16 0 01-2.72 3.57l-7.8 1.1c-1.74.22-3.36-1-3.6-2.73a3.2 3.2 0 012.72-3.59l7.8-1.08a3.2 3.2 0 013.6 2.73M230.74 46.11l-9.02 1.52-1.55-9.28 9.01-1.5 1.56 9.26z" fill="#FFDEC5"/><path fill-rule="evenodd" clip-rule="evenodd" d="M190.03 126.9l-5.48-11.64 64.03-1.75-1.29 13.38h-57.26z" fill="#394A63"/><path fill-rule="evenodd" clip-rule="evenodd" d="M204.83 179.13h-11.82l-8.46-63.86 16.32 3.22 3.96 60.64z" fill="#394A63"/><path fill-rule="evenodd" clip-rule="evenodd" d="M248.87 114.99l-23.18.27-8.12-67.88 17.8-3.1 13.5 70.7z" fill="#637EA8"/><path fill-rule="evenodd" clip-rule="evenodd" d="M232.78 18.07c1.25 6.57.72 12.9-4.08 15.05l1.15 7.66-9.03 1.46c-6.56 1.21-8.67-3.22-9.9-9.76l-3.26.05 1.6-8.9-.58-3.1a12.06 12.06 0 019.63-14.09 12.09 12.09 0 0114.11 9.64l.36 2z" fill="#FFDEC5"/><path fill-rule="evenodd" clip-rule="evenodd" d="M231.03 27.24c-4.44 1.05-3.14-7.1-7.64-5.85-3.95 1.1-.66 4.62-2.78 5.27-3.38 1.03-.18-11.58-7.26-10.56-6.9 1-2.21-3.16-2.4-7.43 3.95 3.15.33-3.66 6.86-4.88a12.08 12.08 0 0114.13 9.62s4.82 12.5-.9 13.83" fill="#753A13"/><path fill-rule="evenodd" clip-rule="evenodd" d="M235.64 53.66a5.57 5.57 0 00-10.73-2.4s-.31 1.03-.36 1.36c-1.6 7-10.62 38.78-43.13 41.48.2 3.3.22 3.67.99 6.76 47.67-1.61 53.2-46.95 53.2-46.95l.03-.25" fill="#728EB7"/><path fill-rule="evenodd" clip-rule="evenodd" d="M215.03 24.83c.16.64-.23 1.26-.84 1.43a1.18 1.18 0 01-1.42-.85c-.17-.64.2-1.27.85-1.43.63-.14 1.25.23 1.4.85M215.39 22.06l-4.25 1.05-.18-.75 4.24-1.05.19.75z" fill="#3F3F3F"/><path fill-rule="evenodd" clip-rule="evenodd" d="M173.14 185.25v1.87h10.36l12.01-1.14v1.14h9.12v-1.87h-31.49z" fill="#635D5A"/><path fill-rule="evenodd" clip-rule="evenodd" d="M226.38 24.65c.37 1.53-.32 3.03-1.57 3.33-1.25.31-2.57-.7-2.95-2.23-.37-1.54.32-3.06 1.57-3.35 1.25-.32 2.57.7 2.95 2.25" fill="#FFEBDE"/><path fill-rule="evenodd" clip-rule="evenodd" d="M225.51 24.85c.24.94-.21 1.87-.96 2.06-.79.18-1.6-.42-1.82-1.38-.24-.94.2-1.88.97-2.06.77-.2 1.56.42 1.81 1.38" fill="#F2D0B8"/><path fill-rule="evenodd" clip-rule="evenodd" d="M136.5 164.7v11.7a31.43 31.43 0 0131.43 31.44h11.7a43.14 43.14 0 00-43.13-43.14" fill="#BABABA"/><path fill-rule="evenodd" clip-rule="evenodd" d="M216.36 2.37a14.41 14.41 0 0117.26 10.79l-28.06 6.48a14.4 14.4 0 0110.8-17.27" fill="#4A6182"/><path fill-rule="evenodd" clip-rule="evenodd" d="M197.48 21.32l9.98-2.1-.3-1.47-9.98 2.1.3 1.47z" fill="#4A6182"/></svg>