<svg viewBox="0 0 168 52" xmlns="http://www.w3.org/2000/svg"><g fill="#FFF" fill-rule="evenodd"><path d="M42.036.5a10 10 0 011.789.161c5.341.972 8.915 6.019 8.096 11.352l-.047.276-4.363 24a10 10 0 01-9.56 8.207l-.279.004h-4.126l-5.708 6.066a2.5 2.5 0 01-.052.054l-.055.053a2.5 2.5 0 01-3.407.018l-.127-.125-5.709-6.066h-4.124a10 10 0 01-9.786-7.938l-.053-.273-4.364-24A10 10 0 010 10.5C0 5.07 4.327.652 9.72.504L10 .5h32.036zm-4.059 20h-2.405c-.362 5.283-4.51 9.45-9.575 9.45-5.064 0-9.212-4.167-9.574-9.45h-2.405c.365 6.693 5.589 12 11.98 12 6.39 0 11.614-5.307 11.979-12z"/><path d="M74.245 40.383a27.87 27.87 0 004.186-.34c1.488-.227 2.812-.539 3.974-.935 1.077-.312 1.806-.737 2.189-1.275.382-.539.63-1.46.744-2.763l.68-9.053c.028-.68-.15-1.218-.532-1.614-.382-.397-.913-.595-1.594-.595h-7.394c-.68 0-1.233.177-1.658.53-.425.355-.638.844-.638 1.467 0 .623.192 1.098.574 1.424.383.326.928.489 1.636.489h4.59l-.594 7.48c-1.87.566-3.712.85-5.526.85-3.088 0-5.397-.85-6.927-2.55-1.53-1.7-2.295-4.137-2.295-7.31 0-3.74.892-6.687 2.678-8.84 1.785-2.154 4.25-3.23 7.395-3.23 1.614 0 2.996.19 4.143.573 1.148.383 2.246.97 3.294 1.764.482.312.95.468 1.403.468.595 0 1.09-.227 1.487-.68.397-.454.595-.978.595-1.573 0-.907-.44-1.658-1.317-2.252-1.049-.794-2.409-1.445-4.08-1.955-1.672-.51-3.528-.765-5.568-.765-3.145 0-5.886.68-8.224 2.04-2.337 1.36-4.143 3.28-5.418 5.758-1.276 2.48-1.913 5.39-1.913 8.734 0 2.918.56 5.44 1.679 7.565s2.734 3.754 4.845 4.887c2.11 1.134 4.64 1.7 7.586 1.7zm16.498-.128c.736 0 1.374-.213 1.912-.638.538-.424.836-1.062.892-1.912l.723-8.925c.142-1.672.638-2.925 1.487-3.761.85-.836 2.196-1.353 4.038-1.551l1.147-.128c.992-.113 1.686-.383 2.083-.808.397-.424.595-1.062.595-1.912 0-.623-.191-1.098-.574-1.424-.382-.326-.885-.46-1.509-.404l-.467.043a9.317 9.317 0 00-3.697.999 7.64 7.64 0 00-2.806 2.444l.086-1.148c.056-.765-.12-1.346-.532-1.742-.41-.397-.984-.596-1.721-.596-.708 0-1.339.206-1.891.617-.553.41-.857 1.013-.914 1.806l-1.36 16.49c-.057.85.156 1.488.638 1.913.481.424 1.105.637 1.87.637zm17.942.085c1.303 0 2.465-.298 3.485-.893a6.156 6.156 0 002.38-2.507l-.043.808c-.056.736.135 1.338.574 1.806.44.467 1.027.701 1.764.701.793 0 1.424-.213 1.891-.638.468-.424.73-1.034.786-1.827l.808-10.157c.028-.284.043-.695.043-1.233 0-2.578-.695-4.505-2.083-5.78-1.388-1.275-3.485-1.913-6.29-1.913-1.445 0-2.862.185-4.25.553-1.388.368-2.593.864-3.612 1.487-.425.256-.751.574-.978.957-.227.382-.34.758-.34 1.126 0 .51.17.942.51 1.296.34.354.765.531 1.275.531.34 0 .694-.084 1.063-.255 2.153-1.105 4.065-1.657 5.737-1.657 1.417 0 2.45.34 3.102 1.02.652.68.921 1.728.808 3.145l-.043.808h-1.53c-2.975 0-5.355.22-7.14.658-1.785.44-3.08 1.134-3.888 2.083-.808.949-1.212 2.217-1.212 3.804 0 1.161.312 2.202.936 3.123.623.921 1.48 1.644 2.57 2.168 1.092.524 2.317.786 3.677.786zm1.36-3.825c-1.02 0-1.835-.255-2.444-.765s-.913-1.19-.913-2.04c0-.793.226-1.424.68-1.891.453-.468 1.197-.8 2.23-.999 1.035-.198 2.459-.297 4.272-.297h1.19l-.085.934c-.113 1.474-.63 2.685-1.551 3.634-.921.95-2.047 1.424-3.379 1.424zm24.36 3.825c1.927 0 3.64-.489 5.143-1.466 1.501-.978 2.663-2.345 3.484-4.102.822-1.756 1.233-3.768 1.233-6.034 0-2.04-.368-3.818-1.105-5.334-.737-1.516-1.778-2.678-3.124-3.485-1.346-.808-2.883-1.212-4.611-1.212-1.36 0-2.614.277-3.761.83-1.148.552-2.061 1.338-2.741 2.358l.807-9.732c.028-.709-.17-1.276-.595-1.7-.425-.425-1.034-.638-1.827-.638-.794 0-1.467.22-2.02.659-.552.439-.842 1.027-.87 1.764l-2.04 25.457c-.029.793.177 1.417.616 1.87.439.453 1.055.68 1.849.68.793 0 1.444-.227 1.954-.68.51-.453.794-1.077.85-1.87l.085-.977c.652 1.161 1.545 2.054 2.678 2.677 1.133.623 2.465.935 3.995.935zm-.935-4.123c-1.672 0-2.954-.524-3.846-1.572-.893-1.048-1.339-2.593-1.339-4.633 0-2.21.489-3.966 1.466-5.27.978-1.303 2.302-1.954 3.974-1.954 1.672 0 2.96.538 3.868 1.614.906 1.077 1.36 2.607 1.36 4.59 0 2.239-.49 4.003-1.467 5.292-.977 1.289-2.316 1.934-4.016 1.934zm16.667-21.207c.964 0 1.729-.262 2.296-.786.566-.524.85-1.212.85-2.062 0-.85-.29-1.53-.872-2.04-.58-.51-1.339-.764-2.274-.764-.963 0-1.728.255-2.294.764-.567.51-.85 1.19-.85 2.04 0 .85.283 1.538.85 2.062.566.524 1.331.786 2.294.786zm-2.21 25.245c.737 0 1.375-.213 1.913-.638.538-.424.836-1.062.892-1.912l1.36-16.447c.057-.822-.148-1.438-.616-1.85-.467-.41-1.083-.616-1.849-.616-.764 0-1.416.206-1.954.617-.539.41-.836 1.027-.893 1.849l-1.36 16.447c-.057.85.156 1.488.638 1.913.481.424 1.105.637 1.87.637zm14.883.042c1.558 0 2.65-.17 3.273-.51.623-.34.935-.949.935-1.827 0-.538-.114-.963-.34-1.275a1.093 1.093 0 00-.935-.468 7.6 7.6 0 00-.872.064 7.831 7.831 0 01-.913.064c-.964 0-1.708-.297-2.232-.892-.524-.596-.786-1.46-.786-2.593 0-.34.014-.595.042-.765l.68-8.883h3.655c1.644 0 2.465-.708 2.465-2.125 0-.595-.19-1.055-.573-1.38-.383-.327-.928-.49-1.637-.49h-3.57l.298-3.867c.057-.793-.135-1.41-.574-1.849-.439-.439-1.07-.659-1.891-.659-.822 0-1.488.22-1.998.66-.51.438-.793 1.04-.85 1.805l-.297 3.91h-2.167c-1.672 0-2.508.695-2.508 2.083 0 .623.198 1.098.595 1.424.397.326.95.488 1.657.488h2.083l-.68 8.926a11.33 11.33 0 00-.042 1.147c0 2.238.623 3.967 1.87 5.185 1.246 1.218 3.017 1.828 5.312 1.828z" fill-rule="nonzero"/></g></svg>