<svg width="168" height="52" viewBox="0 0 168 52" xmlns="http://www.w3.org/2000/svg"><g fill="none" fill-rule="evenodd"><path d="M42.036.5a10 10 0 011.789.161c5.433.988 9.037 6.194 8.05 11.628l-4.364 24a10 10 0 01-9.839 8.211h-4.126l-5.708 6.066a2.5 2.5 0 01-.052.054l-.055.053a2.5 2.5 0 01-3.534-.107L18.488 44.5h-4.124a10 10 0 01-9.786-7.938l-.053-.273-4.364-24A10 10 0 010 10.5C0 4.977 4.477.5 10 .5z" fill="#F71117"/><path d="M25.997 32.5c-6.39 0-11.614-5.307-11.98-12h2.406c.362 5.283 4.51 9.45 9.574 9.45 5.065 0 9.213-4.167 9.575-9.45h2.405c-.365 6.693-5.589 12-11.98 12z" fill="#FFF"/><text font-family="Nunito-BoldItalic, Nunito" font-size="42.5" font-style="italic" font-weight="bold" letter-spacing="-2.5" fill="#222A30" transform="translate(0 -3)"><tspan x="57.5" y="43">Grabit</tspan></text></g></svg>