<svg opacity="0.12" transform="rotate(-10 50 100) translate(36)" fill="#fff" viewBox="0 0 53 51" xmlns="http://www.w3.org/2000/svg"><path fill-rule="evenodd" clip-rule="evenodd" d="M42.036 0a10 10 0 019.885 11.513l-.047.276-4.363 24a10 10 0 01-9.56 8.207l-.279.004h-4.126l-5.708 6.066a2.413 2.413 0 01-.052.054l-.055.053a2.5 2.5 0 01-3.407.018l-.127-.125L18.488 44h-4.124a10 10 0 01-9.786-7.938l-.053-.273-4.364-24A10 10 0 010 10C0 4.57 4.327.152 9.72.004L10 0h32.036zm-4.059 20h-2.405c-.362 5.283-4.51 9.45-9.575 9.45-5.064 0-9.212-4.167-9.574-9.45h-2.405c.365 6.693 5.589 12 11.98 12 6.39 0 11.614-5.307 11.979-12z"/></svg>