<svg viewBox="0 0 131 224" fill="none" xmlns="http://www.w3.org/2000/svg"><path fill-rule="evenodd" clip-rule="evenodd" d="M81.34 88.08a3.62 3.62 0 004.28 2.8l8.8-1.87a3.6 3.6 0 10-1.51-7.05l-8.76 1.84a3.63 3.63 0 00-2.8 4.28" fill="#FFDEC5"/><path fill-rule="evenodd" clip-rule="evenodd" d="M19.26 62.1a5.95 5.95 0 019.87-6.4s.71.92.9 1.24C34.17 63.4 55 92 88.7 82.7c1.02 3.38 1.15 3.77 1.48 7.15-48.5 16.01-70.82-27.48-70.82-27.48l.01-.03c-.02-.08-.09-.15-.11-.23" fill="#506A91"/><path fill-rule="evenodd" clip-rule="evenodd" d="M69.52 119.7h55.47a5.1 5.1 0 005.12-5.12V59.1a5.12 5.12 0 00-5.12-5.12H69.52a5.12 5.12 0 00-5.12 5.12v55.5a5.12 5.12 0 005.12 5.11z" fill="#F71117"/><path fill-rule="evenodd" clip-rule="evenodd" d="M72.01 112.07h50.47V61.6H72.01v50.48z" fill="#F71117"/><path fill-rule="evenodd" clip-rule="evenodd" d="M77.64 106.42h39.2v-39.2h-39.2v39.2z" fill="#F71117"/><path fill-rule="evenodd" clip-rule="evenodd" d="M109.07 69.11a7.37 7.37 0 017.3 8.45l-.04.24-3.22 17.7a7.37 7.37 0 01-7 6.05h-3.3l-4.2 4.47-.04.04-.04.04c-.7.66-1.78.67-2.49.04l-.12-.12-4.2-4.47h-3.05a7.37 7.37 0 01-7.2-5.8l-.05-.25-3.22-17.7a7.37 7.37 0 017-8.69h23.87zM90.2 83.86h-1.77c.26 4.93 4.12 8.84 8.83 8.84 4.7 0 8.56-3.9 8.83-8.84h-1.77c-.27 3.9-3.33 6.96-7.06 6.96-3.74 0-6.8-3.07-7.06-6.96z" fill="#fff"/><path fill-rule="evenodd" clip-rule="evenodd" d="M45.27 223.02H34.2l-12.9-1.24v1.24h-9.73v-9.74l12.39.13 21.31 6.06v3.55z" fill="#332F2D"/><path fill-rule="evenodd" clip-rule="evenodd" d="M79.44 96.14a3.4 3.4 0 003.65 3.14l8.44-.66a3.37 3.37 0 003.1-3.65A3.38 3.38 0 0091 91.83l-8.43.67a3.4 3.4 0 00-3.13 3.64zM23.46 44.86L33 47.01l2.21-9.8-9.56-2.16-2.19 9.81z" fill="#FFDEC5"/><path fill-rule="evenodd" clip-rule="evenodd" d="M9.57 213.74h15.42v-96.3H0l9.57 96.3z" fill="#394A63"/><path fill-rule="evenodd" clip-rule="evenodd" d="M0 117.44l24.74 1.68 12.71-72.1-18.84-4.37L0 117.45z" fill="#637EA8"/><path fill-rule="evenodd" clip-rule="evenodd" d="M22.93 14.75C21.2 21.7 21.38 28.51 26.4 31.1l-1.68 8.1 9.58 2.1c6.94 1.71 9.43-2.9 11.13-9.85l3.5.26-1.2-9.6.81-3.29a12.92 12.92 0 10-25.1-6.18l-.5 2.11h-.01z" fill="#FFDEC5"/><path fill-rule="evenodd" clip-rule="evenodd" d="M24.24 24.67c4.68 1.37 3.78-7.4 8.52-5.8 4.16 1.42.44 4.98 2.68 5.8C39 26 36.3 12.3 43.8 13.82c7.3 1.47-.59-2.33-.14-6.88-4.39 3.11 3.02-4.86-3.91-6.56A12.93 12.93 0 0024.1 9.83s-5.88 13.06.14 14.84" fill="#753A13"/><path fill-rule="evenodd" clip-rule="evenodd" d="M18.97 62.13a6.01 6.01 0 014.16-7.38 6 6 0 016.53 2.4s.57 1 .68 1.34c3.27 6.95 19.99 38.13 54.6 33.52.56 3.5.64 3.9.53 7.3-50.24 9.23-66.42-36.93-66.42-36.93h.02l-.1-.25" fill="#728EB7"/><path fill-rule="evenodd" clip-rule="evenodd" d="M41.5 23.05a1.25 1.25 0 101.57-.82c-.67-.2-1.36.16-1.58.82h.01zm-.22-3l4.5 1.37.24-.78-4.48-1.38-.26.8z" fill="#3F3F3F"/><path fill-rule="evenodd" clip-rule="evenodd" d="M45.27 221.01v2.01H34.2l-12.9-1.24v1.24h-9.73v-2h33.7z" fill="#635D5A"/><path fill-rule="evenodd" clip-rule="evenodd" d="M29.38 22.16c-.47 1.64.18 3.27 1.49 3.67 1.31.41 2.77-.59 3.29-2.2.5-1.65-.17-3.29-1.49-3.7-1.33-.4-2.79.6-3.29 2.23" fill="#FFEBDE"/><path fill-rule="evenodd" clip-rule="evenodd" d="M30.3 22.43c-.3 1.01.1 2.02.9 2.27.82.25 1.72-.37 2.02-1.37.32-1-.07-2-.9-2.25-.81-.26-1.7.35-2.03 1.35" fill="#F2D0B8"/><path fill-rule="evenodd" clip-rule="evenodd" d="M39.94.4a15.34 15.34 0 00-18.4 11.5l29.91 6.91A15.35 15.35 0 0039.95.4" fill="#4A6182"/><path fill-rule="evenodd" clip-rule="evenodd" d="M60.07 20.6l-10.64-2.25.34-1.56 10.62 2.25-.32 1.55z" fill="#4A6182"/></svg>